<svg xmlns="http://www.w3.org/2000/svg" viewBox="0 0 100 100" width="100" height="100"><defs><radialGradient id="bo" cx="0.45" cy="0.4" r="0.7"><stop offset="0" stop-color="#7a3fb8"/><stop offset="0.6" stop-color="#4a149c"/><stop offset="1" stop-color="#1f0840"/></radialGradient></defs><path d="M22 32 q-10 -20 -4 -26 q14 6 18 22 Z" fill="#2e0d6e" stroke="#160630" stroke-width="2.5"/><path d="M78 32 q10 -20 4 -26 q-14 6 -18 22 Z" fill="#2e0d6e" stroke="#160630" stroke-width="2.5"/><path d="M50 88 C24 88 16 64 18 48 C20 28 32 16 50 16 C68 16 80 28 82 48 C84 64 76 88 50 88 Z" fill="url(#bo)" stroke="#160630" stroke-width="4" stroke-linejoin="round"/><path d="M30 50 L44 46 L40 58 Z" fill="#fff23f" stroke="#160630" stroke-width="2"/><path d="M70 50 L56 46 L60 58 Z" fill="#fff23f" stroke="#160630" stroke-width="2"/><circle cx="37" cy="51" r="3" fill="#9a1218"/><circle cx="63" cy="51" r="3" fill="#9a1218"/><path d="M32 68 L40 64 L44 70 L50 64 L56 70 L60 64 L68 68 L62 78 L38 78 Z" fill="#160630" stroke="#fff" stroke-width="1.5" stroke-linejoin="round"/></svg>
