<svg xmlns="http://www.w3.org/2000/svg" viewBox="0 0 100 100" width="100" height="100"><defs><radialGradient id="gb" cx="0.45" cy="0.4" r="0.7"><stop offset="0" stop-color="#8ed86a"/><stop offset="1" stop-color="#3f8a2a"/></radialGradient></defs><path d="M26 50 q-16 -6 -18 4 q12 8 22 2 Z" fill="url(#gb)" stroke="#1f5e1a" stroke-width="2.5"/><path d="M74 50 q16 -6 18 4 q-12 8 -22 2 Z" fill="url(#gb)" stroke="#1f5e1a" stroke-width="2.5"/><path d="M50 84 C30 84 24 64 26 50 C28 34 38 26 50 26 C62 26 72 34 74 50 C76 64 70 84 50 84 Z" fill="url(#gb)" stroke="#1f5e1a" stroke-width="3.5" stroke-linejoin="round"/><path d="M38 50 l8 2 -7 5 Z" fill="#fff" stroke="#1f5e1a" stroke-width="1.5"/><path d="M62 50 l-8 2 7 5 Z" fill="#fff" stroke="#1f5e1a" stroke-width="1.5"/><circle cx="42" cy="53" r="2" fill="#9a1218"/><circle cx="58" cy="53" r="2" fill="#9a1218"/><path d="M40 68 q10 6 20 0 l-3 6 -4 -3 -3 3 -3 -3 -4 3 Z" fill="#160630" stroke="#fff" stroke-width="1"/></svg>
