<svg xmlns="http://www.w3.org/2000/svg" viewBox="0 0 100 100" width="100" height="100"><defs><linearGradient id="ka" x1="0" y1="0" x2="0" y2="1"><stop offset="0" stop-color="#9ec4ff"/><stop offset="1" stop-color="#3a6ad8"/></linearGradient><linearGradient id="kb" x1="0" y1="0" x2="0" y2="1"><stop offset="0" stop-color="#cfd8ec"/><stop offset="1" stop-color="#8a98b8"/></linearGradient></defs><path d="M70 40 L86 16" stroke="#cfd6e8" stroke-width="6" stroke-linecap="round"/><path d="M70 40 L86 16" stroke="#9aa4c8" stroke-width="2.5" stroke-linecap="round"/><path d="M64 38 l8 -8" stroke="#ffd23f" stroke-width="5" stroke-linecap="round"/><path d="M30 86 q-4 -12 4 -14 M62 86 q4 -12 -4 -14" stroke="#5b6488" stroke-width="8" stroke-linecap="round"/><path d="M32 50 q0 -10 16 -10 q16 0 16 10 v22 q0 8 -16 8 q-16 0 -16 -8 Z" fill="url(#ka)" stroke="#1f3a8a" stroke-width="3" stroke-linejoin="round"/><path d="M48 40 v40" stroke="#1f3a8a" stroke-width="2" opacity="0.5"/><path d="M58 48 q12 0 14 8" fill="none" stroke="url(#kb)" stroke-width="7" stroke-linecap="round"/><path d="M34 26 q0 -10 14 -10 q14 0 14 10 q0 14 -14 16 q-14 -2 -14 -16 Z" fill="url(#kb)" stroke="#5b6488" stroke-width="3" stroke-linejoin="round"/><rect x="42" y="24" width="12" height="8" rx="2" fill="#16213a"/><path d="M48 14 l4 8 -8 0 Z" fill="#e8362f" stroke="#9a1218" stroke-width="1.5"/></svg>
