<svg xmlns="http://www.w3.org/2000/svg" viewBox="0 0 100 100" width="100" height="100"><defs><radialGradient id="oc" cx="0.45" cy="0.4" r="0.7"><stop offset="0" stop-color="#9aa0ac"/><stop offset="1" stop-color="#4a505c"/></radialGradient></defs><path d="M30 34 q-6 -16 0 -20 q8 6 9 18 Z" fill="#3a4048" stroke="#22262c" stroke-width="2"/><path d="M70 34 q6 -16 0 -20 q-8 6 -9 18 Z" fill="#3a4048" stroke="#22262c" stroke-width="2"/><path d="M50 86 C28 86 22 64 24 48 C26 30 38 22 50 22 C62 22 74 30 76 48 C78 64 72 86 50 86 Z" fill="url(#oc)" stroke="#22262c" stroke-width="3.5" stroke-linejoin="round"/><circle cx="40" cy="48" r="4" fill="#ff5a2a"/><circle cx="60" cy="48" r="4" fill="#ff5a2a"/><path d="M36 64 q14 8 28 0 l-2 8 -4 -4 -4 4 -4 -4 -4 4 -4 -4 Z" fill="#160630" stroke="#fff" stroke-width="1.5"/><path d="M40 76 l-2 8 m24 -8 l2 8" stroke="#fff" stroke-width="3" stroke-linecap="round"/></svg>
