<svg xmlns="http://www.w3.org/2000/svg" viewBox="0 0 100 100" width="100" height="100"><defs><linearGradient id="pr" x1="0" y1="0" x2="0" y2="1"><stop offset="0" stop-color="#ffd0e8"/><stop offset="1" stop-color="#ff7ab8"/></linearGradient></defs><path d="M30 88 L40 50 q10 -6 20 0 L70 88 Z" fill="url(#pr)" stroke="#d81b80" stroke-width="3" stroke-linejoin="round"/><path d="M34 42 q-6 12 -2 24 M66 42 q6 12 2 24" fill="none" stroke="#ffb347" stroke-width="6" stroke-linecap="round"/><circle cx="50" cy="38" r="15" fill="#ffe0c4" stroke="#c88a5a" stroke-width="3"/><path d="M35 32 q15 -10 30 0 q-2 -16 -15 -16 q-13 0 -15 16 Z" fill="#ffb347" stroke="#c87a1a" stroke-width="2.5"/><path d="M36 22 L40 12 L50 18 L60 12 L64 22 Z" fill="#ffd23f" stroke="#c8920c" stroke-width="2" stroke-linejoin="round"/><circle cx="44" cy="38" r="2.5" fill="#2a1810"/><circle cx="56" cy="38" r="2.5" fill="#2a1810"/><path d="M45 46 q5 4 10 0" fill="none" stroke="#d8607a" stroke-width="2.5" stroke-linecap="round"/><circle cx="38" cy="44" r="3" fill="#ff9ab0" opacity="0.6"/><circle cx="62" cy="44" r="3" fill="#ff9ab0" opacity="0.6"/></svg>
