<svg xmlns="http://www.w3.org/2000/svg" viewBox="0 0 100 100" width="100" height="100"><defs><linearGradient id="vn" x1="0" y1="0" x2="0" y2="1"><stop offset="0" stop-color="#5fb85f"/><stop offset="1" stop-color="#1f6e2a"/></linearGradient></defs><path d="M50 8 C30 24 70 40 50 56 C30 72 70 84 50 94" fill="none" stroke="url(#vn)" stroke-width="11" stroke-linecap="round"/><g fill="#3f9e3f" stroke="#155a1a" stroke-width="2"><path d="M38 26 q-14 -4 -14 -16 q12 2 16 14 Z"/><path d="M62 44 q14 -4 14 -16 q-12 2 -16 14 Z"/><path d="M38 64 q-14 -4 -14 -16 q12 2 16 14 Z"/></g><g stroke="#e8362f" stroke-width="2.5" stroke-linecap="round"><path d="M44 20 l4 4 M56 38 l-4 4 M44 58 l4 4"/></g></svg>
