<svg xmlns="http://www.w3.org/2000/svg" viewBox="0 0 100 100" width="100" height="100">
  <defs><radialGradient id="mb" cx="0.42" cy="0.4" r="0.7">
    <stop offset="0" stop-color="#ff8a7a"/><stop offset="0.55" stop-color="#e84a4a"/><stop offset="1" stop-color="#a52030"/>
  </radialGradient></defs>
  <!-- fat rind -->
  <path d="M24 40 C20 22 50 14 70 24 C88 32 86 64 70 76 C52 88 24 80 20 60 q-2 -10 4 -20 Z"
        fill="#f7e0c4" stroke="#c89a6a" stroke-width="3.5" stroke-linejoin="round"/>
  <!-- meat -->
  <path d="M30 42 C28 28 52 24 66 32 C80 40 78 62 64 70 C50 78 32 72 30 56 q-1 -7 0 -14 Z"
        fill="url(#mb)" stroke="#7a1320" stroke-width="3" stroke-linejoin="round"/>
  <!-- marbling -->
  <g stroke="#ffd0c4" stroke-width="2.5" stroke-linecap="round" fill="none" opacity="0.7">
    <path d="M40 40 q8 6 4 16"/><path d="M52 36 q4 12 -2 22"/><path d="M60 44 q-6 6 -2 14"/></g>
  <ellipse cx="44" cy="44" rx="6" ry="4" fill="#ff9a8b" opacity="0.5"/>
</svg>
