<svg xmlns="http://www.w3.org/2000/svg" viewBox="0 0 100 100" width="100" height="100">
  <defs><linearGradient id="gf" x1="0" y1="0" x2="0" y2="1">
    <stop offset="0" stop-color="#fff7c2"/><stop offset="0.5" stop-color="#ffd23f"/><stop offset="1" stop-color="#e8920c"/>
  </linearGradient><radialGradient id="gfg" cx="0.5" cy="0.5" r="0.6">
    <stop offset="0" stop-color="#fff7b0" stop-opacity="0.8"/><stop offset="1" stop-color="#fff7b0" stop-opacity="0"/>
  </radialGradient></defs>
  <circle cx="50" cy="54" r="46" fill="url(#gfg)"/>
  <path d="M12 30 q0 -6 6 -6 h22 l8 8 h36 q6 0 6 6 v8 H12 Z" fill="#f0b81e" stroke="#9a6608" stroke-width="3" stroke-linejoin="round"/>
  <path d="M12 38 q0 -4 6 -4 h64 q6 0 6 4 v36 q0 6 -6 6 H18 q-6 0 -6 -6 Z" fill="url(#gf)" stroke="#9a6608" stroke-width="3.5" stroke-linejoin="round"/>
  <path d="M50 44 l4 9 10 1 -7 7 2 10 -9 -5 -9 5 2 -10 -7 -7 10 -1 Z" fill="#fff" stroke="#e8920c" stroke-width="1.5" stroke-linejoin="round"/>
</svg>
