<svg xmlns="http://www.w3.org/2000/svg" viewBox="0 0 100 100" width="100" height="100">
  <defs><radialGradient id="fs" cx="0.4" cy="0.4" r="0.7">
    <stop offset="0" stop-color="#ff8a9a"/><stop offset="0.55" stop-color="#f0263f"/><stop offset="1" stop-color="#a5102a"/>
  </radialGradient></defs>
  <path d="M30 26 q20 -12 40 0 q-6 6 -20 6 q-14 0 -20 -6 Z" fill="#5fb85f" stroke="#2f7a2f" stroke-width="2.5" stroke-linejoin="round"/>
  <path d="M44 18 l6 10 6 -10" fill="#5fb85f" stroke="#2f7a2f" stroke-width="2.5" stroke-linejoin="round"/>
  <path d="M28 34 C28 30 72 30 72 34 C72 58 56 86 50 88 C44 86 28 58 28 34 Z"
        fill="url(#fs)" stroke="#7a0f1e" stroke-width="3.5" stroke-linejoin="round"/>
  <g fill="#ffe07a"><circle cx="40" cy="44" r="2"/><circle cx="56" cy="44" r="2"/><circle cx="48" cy="54" r="2"/>
    <circle cx="38" cy="58" r="2"/><circle cx="58" cy="58" r="2"/><circle cx="48" cy="70" r="2"/></g>
</svg>
