<svg xmlns="http://www.w3.org/2000/svg" viewBox="0 0 100 100" width="100" height="100"><path d="M50 24 C38 18 22 18 16 24 V78 C22 72 38 72 50 78 C62 72 78 72 84 78 V24 C78 18 62 18 50 24 Z" fill="#fff" stroke="#3a4a78" stroke-width="3.5" stroke-linejoin="round"/><path d="M50 24 V78" stroke="#3a4a78" stroke-width="3"/><path d="M24 34 h18 M24 44 h18 M58 34 h18 M58 44 h18" stroke="#7a86b8" stroke-width="2.5" stroke-linecap="round"/><path d="M16 24 C22 18 38 18 50 24 V78 C38 72 22 72 16 78 Z" fill="#5fb0ff" opacity="0.25"/></svg>
