<svg xmlns="http://www.w3.org/2000/svg" viewBox="0 0 400 600" width="400" height="600" preserveAspectRatio="xMidYMid slice">
  <defs>
    <linearGradient id="sky" x1="0" y1="0" x2="0" y2="1">
      <stop offset="0" stop-color="#1a0b3d"/>
      <stop offset="0.5" stop-color="#0d1845"/>
      <stop offset="1" stop-color="#06102e"/>
    </linearGradient>
    <radialGradient id="neb1" cx="0.3" cy="0.25" r="0.4">
      <stop offset="0" stop-color="#6a2fb8" stop-opacity="0.45"/>
      <stop offset="1" stop-color="#6a2fb8" stop-opacity="0"/>
    </radialGradient>
    <radialGradient id="neb2" cx="0.75" cy="0.7" r="0.4">
      <stop offset="0" stop-color="#1f6fd0" stop-opacity="0.4"/>
      <stop offset="1" stop-color="#1f6fd0" stop-opacity="0"/>
    </radialGradient>
  </defs>
  <rect width="400" height="600" fill="url(#sky)"/>
  <rect width="400" height="600" fill="url(#neb1)"/>
  <rect width="400" height="600" fill="url(#neb2)"/>
  <g fill="#ffffff">
    <circle cx="40" cy="60" r="1.6" opacity="0.9"/><circle cx="120" cy="30" r="1" opacity="0.7"/>
    <circle cx="210" cy="80" r="2" opacity="0.95"/><circle cx="300" cy="40" r="1.2" opacity="0.7"/>
    <circle cx="360" cy="110" r="1.6" opacity="0.85"/><circle cx="70" cy="150" r="1" opacity="0.6"/>
    <circle cx="170" cy="180" r="1.5" opacity="0.85"/><circle cx="260" cy="150" r="1" opacity="0.6"/>
    <circle cx="340" cy="210" r="1.8" opacity="0.9"/><circle cx="30" cy="240" r="1.3" opacity="0.7"/>
    <circle cx="110" cy="280" r="1" opacity="0.6"/><circle cx="200" cy="260" r="2" opacity="0.95"/>
    <circle cx="290" cy="300" r="1.2" opacity="0.7"/><circle cx="370" cy="330" r="1.5" opacity="0.85"/>
    <circle cx="60" cy="360" r="1.7" opacity="0.9"/><circle cx="150" cy="390" r="1" opacity="0.6"/>
    <circle cx="240" cy="370" r="1.4" opacity="0.8"/><circle cx="330" cy="420" r="1" opacity="0.6"/>
    <circle cx="40" cy="450" r="1.5" opacity="0.85"/><circle cx="130" cy="480" r="1.9" opacity="0.95"/>
    <circle cx="220" cy="460" r="1" opacity="0.6"/><circle cx="300" cy="500" r="1.3" opacity="0.75"/>
    <circle cx="370" cy="540" r="1.6" opacity="0.85"/><circle cx="80" cy="550" r="1.1" opacity="0.65"/>
    <circle cx="190" cy="560" r="1.5" opacity="0.8"/><circle cx="270" cy="580" r="1" opacity="0.6"/>
  </g>
  <g fill="#bfe6ff">
    <circle cx="95" cy="100" r="1.2" opacity="0.8"/><circle cx="320" cy="160" r="1.4" opacity="0.8"/>
    <circle cx="55" cy="310" r="1.3" opacity="0.75"/><circle cx="250" cy="520" r="1.4" opacity="0.8"/>
  </g>
</svg>
