<svg xmlns="http://www.w3.org/2000/svg" viewBox="0 0 100 100" width="100" height="100">
  <defs>
    <radialGradient id="skMine" cx="0.4" cy="0.35" r="0.75">
      <stop offset="0" stop-color="#6b7280"/>
      <stop offset="0.55" stop-color="#3a4150"/>
      <stop offset="1" stop-color="#1b2030"/>
    </radialGradient>
    <radialGradient id="skWarn" cx="0.5" cy="0.5" r="0.5">
      <stop offset="0" stop-color="#fff"/>
      <stop offset="0.4" stop-color="#ff5252"/>
      <stop offset="1" stop-color="#b71c1c"/>
    </radialGradient>
  </defs>
  <!-- spikes -->
  <g fill="#4a5160" stroke="#10131c" stroke-width="2.5" stroke-linejoin="round">
    <path d="M50 4 l7 18 -14 0 Z"/>
    <path d="M50 96 l7 -18 -14 0 Z"/>
    <path d="M4 50 l18 7 0 -14 Z"/>
    <path d="M96 50 l-18 7 0 -14 Z"/>
    <path d="M18 18 l16 6 -10 10 Z"/>
    <path d="M82 18 l-16 6 10 10 Z"/>
    <path d="M18 82 l16 -6 -10 -10 Z"/>
    <path d="M82 82 l-16 -6 10 -10 Z"/>
  </g>
  <!-- mine body -->
  <circle cx="50" cy="50" r="30" fill="url(#skMine)" stroke="#10131c" stroke-width="4"/>
  <!-- skull mark -->
  <g fill="#e8edf5">
    <path d="M50 34 c-10 0 -16 7 -16 16 c0 6 3 10 6 12 l0 5 4 0 0 -3 4 0 0 3 4 0 0 -3 4 0 0 3 4 0 0 -5 c3 -2 6 -6 6 -12 c0 -9 -6 -16 -16 -16 Z"/>
  </g>
  <circle cx="43" cy="49" r="4.5" fill="#10131c"/>
  <circle cx="57" cy="49" r="4.5" fill="#10131c"/>
  <path d="M47 59 l3 -4 3 4" fill="#10131c"/>
  <!-- warning lights -->
  <circle cx="50" cy="24" r="4" fill="url(#skWarn)"/>
  <circle cx="76" cy="50" r="4" fill="url(#skWarn)"/>
  <circle cx="24" cy="50" r="4" fill="url(#skWarn)"/>
</svg>
