<svg xmlns="http://www.w3.org/2000/svg" viewBox="0 0 100 100" width="100" height="100">
  <defs>
    <radialGradient id="ebStar" cx="0.5" cy="0.4" r="0.7">
      <stop offset="0" stop-color="#fffde0"/>
      <stop offset="0.5" stop-color="#ffd23f"/>
      <stop offset="1" stop-color="#ff9800"/>
    </radialGradient>
    <radialGradient id="ebGlow" cx="0.5" cy="0.5" r="0.5">
      <stop offset="0" stop-color="#fff3b0" stop-opacity="0.9"/>
      <stop offset="1" stop-color="#fff3b0" stop-opacity="0"/>
    </radialGradient>
  </defs>
  <circle cx="50" cy="50" r="48" fill="url(#ebGlow)"/>
  <!-- sparkles -->
  <g fill="#fff7c2">
    <path d="M16 20 l2 6 6 2 -6 2 -2 6 -2 -6 -6 -2 6 -2 Z"/>
    <path d="M82 30 l1.5 4 4 1.5 -4 1.5 -1.5 4 -1.5 -4 -4 -1.5 4 -1.5 Z"/>
  </g>
  <!-- star -->
  <path d="M50 10 L61 38 L91 40 L67 59 L75 88 L50 71 L25 88 L33 59 L9 40 L39 38 Z"
        fill="url(#ebStar)" stroke="#c46a00" stroke-width="3.5" stroke-linejoin="round"/>
  <!-- highlight -->
  <path d="M50 20 L57 38" stroke="#ffffff" stroke-width="3" stroke-linecap="round" opacity="0.7"/>
  <circle cx="44" cy="46" r="4" fill="#ffffff" opacity="0.8"/>
</svg>
