<svg xmlns="http://www.w3.org/2000/svg" viewBox="0 0 100 100" width="100" height="100">
  <defs><radialGradient id="ch3" cx="0.4" cy="0.4" r="0.7"><stop offset="0" stop-color="#ffffff"/><stop offset="1" stop-color="#e8eef5"/></radialGradient></defs>
  <ellipse cx="50" cy="62" rx="26" ry="26" fill="url(#ch3)" stroke="#9aa4b8" stroke-width="3.5"/>
  <circle cx="50" cy="34" r="18" fill="url(#ch3)" stroke="#9aa4b8" stroke-width="3.5"/>
  <path d="M44 17 q2 -8 6 -6 q-1 4 2 6 q3 -6 7 -3 q-1 5 -3 7 q5 0 5 5 q-9 4 -16 0 q-4 -4 -1 -9 Z" fill="#e8362f" stroke="#9a1218" stroke-width="2" stroke-linejoin="round"/>
  <circle cx="44" cy="32" r="3" fill="#2a1810"/><circle cx="56" cy="32" r="3" fill="#2a1810"/>
  <path d="M48 40 l8 0 -4 6 Z" fill="#ff9a1a" stroke="#c8600a" stroke-width="1.5"/>
  <path d="M40 46 q-3 5 0 9" fill="#e8362f" stroke="#9a1218" stroke-width="2"/>
  <path d="M70 60 q14 -4 12 8 q-8 4 -12 -2 Z" fill="url(#ch3)" stroke="#9aa4b8" stroke-width="3"/>
</svg>
