<svg xmlns="http://www.w3.org/2000/svg" viewBox="0 0 100 100" width="100" height="100">
  <defs><linearGradient id="dr4" x1="0" y1="0" x2="0" y2="1"><stop offset="0" stop-color="#7be88a"/><stop offset="1" stop-color="#1f9e4a"/></linearGradient></defs>
  <path d="M30 78 q-10 -2 -8 -14 q8 4 14 2" fill="url(#dr4)" stroke="#0f6a2e" stroke-width="3" stroke-linejoin="round"/>
  <path d="M40 44 C26 48 24 70 42 80 q14 6 26 -4 q10 -12 2 -28 q-10 -14 -30 -4 Z" fill="url(#dr4)" stroke="#0f6a2e" stroke-width="3.5" stroke-linejoin="round"/>
  <ellipse cx="56" cy="60" rx="9" ry="11" fill="#d4f7d4" opacity="0.6"/>
  <path d="M52 22 q16 -6 22 8 q4 12 -8 18 q-14 4 -20 -8 q-4 -12 6 -18 Z" fill="url(#dr4)" stroke="#0f6a2e" stroke-width="3.5" stroke-linejoin="round"/>
  <path d="M54 18 q-4 -10 2 -12 q4 4 4 12 Z" fill="#0f6a2e"/>
  <path d="M72 18 q6 -8 10 -4 q0 6 -6 10 Z" fill="#0f6a2e"/>
  <circle cx="60" cy="34" r="3.5" fill="#ff1744"/><circle cx="74" cy="36" r="3.5" fill="#ff1744"/>
  <path d="M66 46 q6 2 10 -2" fill="none" stroke="#0f6a2e" stroke-width="2.5" stroke-linecap="round"/>
</svg>
