<svg xmlns="http://www.w3.org/2000/svg" viewBox="0 0 100 100" width="100" height="100">
  <defs><linearGradient id="dw5" x1="0" y1="0" x2="0" y2="1"><stop offset="0" stop-color="#8a6bff"/><stop offset="1" stop-color="#4a149c"/></linearGradient></defs>
  <!-- sword behind -->
  <path d="M76 14 L40 78" stroke="#cfd6e8" stroke-width="7" stroke-linecap="round"/>
  <path d="M76 14 L40 78" stroke="#9aa4c8" stroke-width="3" stroke-linecap="round"/>
  <path d="M70 24 l12 -12" stroke="#ffd23f" stroke-width="6" stroke-linecap="round"/>
  <!-- dragon head -->
  <path d="M34 36 q18 -10 30 4 q8 14 -4 26 q-16 8 -28 -4 q-8 -14 2 -26 Z" fill="url(#dw5)" stroke="#2e0d6e" stroke-width="3.5" stroke-linejoin="round"/>
  <path d="M36 30 q-4 -10 2 -12 q4 4 4 12 Z" fill="#2e0d6e"/>
  <path d="M54 30 q4 -10 10 -8 q0 6 -4 12 Z" fill="#2e0d6e"/>
  <circle cx="44" cy="46" r="3.5" fill="#ff4d6d"/><circle cx="58" cy="48" r="3.5" fill="#ff4d6d"/>
  <path d="M40 58 q10 4 18 -2" fill="none" stroke="#2e0d6e" stroke-width="2.5" stroke-linecap="round"/>
</svg>
