<svg xmlns="http://www.w3.org/2000/svg" viewBox="0 0 100 100" width="100" height="100">
  <defs><radialGradient id="an6" cx="0.4" cy="0.35" r="0.7"><stop offset="0" stop-color="#fff"/><stop offset="1" stop-color="#ffe0b8"/></radialGradient></defs>
  <!-- wings -->
  <path d="M40 50 q-26 -10 -28 8 q14 6 26 0 Z" fill="#fff" stroke="#c8b08a" stroke-width="3" stroke-linejoin="round"/>
  <path d="M60 50 q26 -10 28 8 q-14 6 -26 0 Z" fill="#fff" stroke="#c8b08a" stroke-width="3" stroke-linejoin="round"/>
  <!-- halo -->
  <ellipse cx="50" cy="22" rx="16" ry="5" fill="none" stroke="#ffd23f" stroke-width="4"/>
  <!-- head + body -->
  <circle cx="50" cy="42" r="16" fill="url(#an6)" stroke="#c8915a" stroke-width="3.5"/>
  <path d="M36 60 q14 -8 28 0 q4 14 -14 18 q-18 -4 -14 -18 Z" fill="url(#an6)" stroke="#c8915a" stroke-width="3.5" stroke-linejoin="round"/>
  <circle cx="44" cy="42" r="2.6" fill="#5a3a1a"/><circle cx="56" cy="42" r="2.6" fill="#5a3a1a"/>
  <path d="M44 50 q6 4 12 0" fill="none" stroke="#c8915a" stroke-width="2.5" stroke-linecap="round"/>
  <circle cx="40" cy="48" r="3" fill="#ffb0b0" opacity="0.7"/><circle cx="60" cy="48" r="3" fill="#ffb0b0" opacity="0.7"/>
</svg>
