<svg xmlns="http://www.w3.org/2000/svg" viewBox="0 0 100 100" width="100" height="100">
  <defs><radialGradient id="de7" cx="0.4" cy="0.4" r="0.7"><stop offset="0" stop-color="#ff8a6b"/><stop offset="1" stop-color="#c0182a"/></radialGradient></defs>
  <path d="M30 30 q-6 -14 0 -18 q8 6 10 16 Z" fill="#8a0f1e" stroke="#5a0a14" stroke-width="2.5"/>
  <path d="M70 30 q6 -14 0 -18 q-8 6 -10 16 Z" fill="#8a0f1e" stroke="#5a0a14" stroke-width="2.5"/>
  <circle cx="50" cy="46" r="24" fill="url(#de7)" stroke="#7a0f1e" stroke-width="3.5"/>
  <path d="M40 42 l8 4 -8 4 Z" fill="#3a0008"/><path d="M60 42 l-8 4 8 4 Z" fill="#3a0008"/>
  <path d="M38 58 q12 8 24 0 q-4 8 -12 8 q-8 0 -12 -8 Z" fill="#3a0008" stroke="#7a0f1e" stroke-width="2"/>
  <path d="M44 60 l2 4 m8 -4 l-2 4 m8 -4 l2 4" stroke="#fff" stroke-width="1.5"/>
  <!-- tail -->
  <path d="M72 70 q12 4 10 16 l4 -2 -6 8 -2 -5 q-10 -2 -12 -12" fill="#8a0f1e" stroke="#5a0a14" stroke-width="2"/>
</svg>
