<svg xmlns="http://www.w3.org/2000/svg" viewBox="0 0 100 100" width="100" height="100"><defs><linearGradient id="hl" x1="0" y1="1" x2="0" y2="0"><stop offset="0" stop-color="#7a0f00"/><stop offset="0.4" stop-color="#ff3a00"/><stop offset="0.8" stop-color="#ffb300"/><stop offset="1" stop-color="#fff23f"/></linearGradient></defs><path d="M50 8 C40 30 58 36 50 54 C66 44 70 22 60 12 C66 30 54 30 50 8 Z" fill="url(#hl)" stroke="#7a0f00" stroke-width="2.5" stroke-linejoin="round"/><path d="M28 40 C20 60 40 66 32 86 C12 70 14 50 28 40 Z" fill="url(#hl)" stroke="#7a0f00" stroke-width="2.5" stroke-linejoin="round"/><path d="M72 40 C80 60 60 66 68 86 C88 70 86 50 72 40 Z" fill="url(#hl)" stroke="#7a0f00" stroke-width="2.5" stroke-linejoin="round"/><path d="M50 44 C40 66 62 72 52 92 C30 76 34 56 50 44 Z" fill="url(#hl)" stroke="#7a0f00" stroke-width="3" stroke-linejoin="round"/></svg>
