<svg xmlns="http://www.w3.org/2000/svg" viewBox="0 0 100 100" width="100" height="100"><circle cx="50" cy="50" r="44" fill="#fff7c2" opacity="0.35"/><defs><radialGradient id="kf" cx="0.45" cy="0.4" r="0.7"><stop offset="0" stop-color="#ffe0c4"/><stop offset="1" stop-color="#f0b890"/></radialGradient></defs><circle cx="50" cy="52" r="28" fill="url(#kf)" stroke="#c88a5a" stroke-width="3.5"/><path d="M30 24 L38 12 L50 22 L62 12 L70 24 Z" fill="#ffd23f" stroke="#c8920c" stroke-width="2.5" stroke-linejoin="round"/><circle cx="40" cy="52" r="3.5" fill="#2a1810"/><circle cx="60" cy="52" r="3.5" fill="#2a1810"/><path d="M42 66 q8 5 16 0" fill="none" stroke="#a86a4a" stroke-width="3" stroke-linecap="round"/><g fill="#fff"><path d="M84 30 l2 6 6 2 -6 2 -2 6 -2 -6 -6 -2 6 -2 Z"/><path d="M14 60 l1.5 4 4 1.5 -4 1.5 -1.5 4 -1.5 -4 -4 -1.5 4 -1.5 Z"/></g></svg>
