<svg xmlns="http://www.w3.org/2000/svg" viewBox="0 0 100 100" width="100" height="100"><path d="M50 6 C42 24 60 30 50 46 C66 36 70 16 60 8 C66 24 54 24 50 6 Z" fill="#ff5a1a" stroke="#9a2400" stroke-width="2" opacity="0.9"/><defs><radialGradient id="kf" cx="0.45" cy="0.4" r="0.7"><stop offset="0" stop-color="#ffe0c4"/><stop offset="1" stop-color="#f0b890"/></radialGradient></defs><circle cx="50" cy="52" r="28" fill="url(#kf)" stroke="#c88a5a" stroke-width="3.5"/><path d="M30 30 q-6 -14 0 -18 q8 6 9 16 Z" fill="#8a0f1e" stroke="#5a0a14" stroke-width="2"/><path d="M70 30 q6 -14 0 -18 q-8 6 -9 16 Z" fill="#8a0f1e" stroke="#5a0a14" stroke-width="2"/><circle cx="40" cy="52" r="4" fill="#ff1744"/><circle cx="60" cy="52" r="4" fill="#ff1744"/><path d="M40 66 q10 6 20 0 q-4 6 -10 6 q-6 0 -10 -6 Z" fill="#3a0008"/></svg>
