<svg xmlns="http://www.w3.org/2000/svg" viewBox="0 0 100 100" width="100" height="100"><defs><linearGradient id="tr" x1="0" y1="0" x2="0" y2="1"><stop offset="0" stop-color="#fff3a0"/><stop offset="1" stop-color="#e8920c"/></linearGradient></defs><path d="M28 18 L36 8 L50 16 L64 8 L72 18 Z" fill="#ffd23f" stroke="#c8920c" stroke-width="2.5" stroke-linejoin="round"/><path d="M34 28 H66 V44 q0 18 -16 22 q-16 -4 -16 -22 Z" fill="url(#tr)" stroke="#a86a08" stroke-width="3.5" stroke-linejoin="round"/><path d="M34 32 q-12 0 -12 10 q0 8 12 8 M66 32 q12 0 12 10 q0 8 -12 8" fill="none" stroke="#a86a08" stroke-width="3.5"/><rect x="44" y="66" width="12" height="12" fill="#c89a4a" stroke="#a86a08" stroke-width="2.5"/><rect x="34" y="78" width="32" height="10" rx="3" fill="url(#tr)" stroke="#a86a08" stroke-width="3"/><path d="M44 40 l3 6 7 1 -5 5 1 7 -6 -3 -6 3 1 -7 -5 -5 7 -1 Z" fill="#fff"/></svg>
