<svg xmlns="http://www.w3.org/2000/svg" viewBox="0 0 100 100" width="100" height="100"><defs><linearGradient id="ph" x1="0" y1="0" x2="0" y2="1"><stop offset="0" stop-color="#fff23f"/><stop offset="0.5" stop-color="#ff7a1a"/><stop offset="1" stop-color="#e8362f"/></linearGradient></defs><path d="M50 50 q-34 -16 -40 8 q24 6 34 -2 Z" fill="url(#ph)" stroke="#9a2400" stroke-width="2.5" stroke-linejoin="round"/><path d="M50 50 q34 -16 40 8 q-24 6 -34 -2 Z" fill="url(#ph)" stroke="#9a2400" stroke-width="2.5" stroke-linejoin="round"/><path d="M50 16 C40 30 44 46 50 56 C56 46 60 30 50 16 Z" fill="url(#ph)" stroke="#9a2400" stroke-width="3" stroke-linejoin="round"/><path d="M50 56 q-6 22 0 30 q6 -8 4 -16 q6 8 4 16 q8 -10 -8 -30 Z" fill="url(#ph)" stroke="#9a2400" stroke-width="2.5"/><circle cx="50" cy="28" r="3" fill="#2a1810"/></svg>
