<svg xmlns="http://www.w3.org/2000/svg" viewBox="0 0 100 100" width="100" height="100"><defs><linearGradient id="bd" x1="0" y1="0" x2="0" y2="1"><stop offset="0" stop-color="#7ad0ff"/><stop offset="1" stop-color="#1f6ad8"/></linearGradient></defs><path d="M30 70 q-12 -2 -10 -16 q8 4 16 2 Z" fill="url(#bd)" stroke="#0d3a8a" stroke-width="3"/><path d="M40 36 q18 -10 30 4 q8 14 -4 26 q-16 8 -28 -4 q-8 -14 2 -26 Z" fill="url(#bd)" stroke="#0d3a8a" stroke-width="3.5" stroke-linejoin="round"/><path d="M40 30 q-4 -12 2 -14 q5 4 5 14 Z" fill="#0d3a8a"/><path d="M58 30 q5 -12 11 -10 q0 6 -4 14 Z" fill="#0d3a8a"/><circle cx="46" cy="46" r="3.5" fill="#fff23f"/><circle cx="60" cy="48" r="3.5" fill="#fff23f"/><path d="M44 58 q10 4 18 -2" fill="none" stroke="#0d3a8a" stroke-width="2.5" stroke-linecap="round"/></svg>
