<svg xmlns="http://www.w3.org/2000/svg" viewBox="0 0 100 100" width="100" height="100"><circle cx="50" cy="54" r="30" fill="#f2f4f8" stroke="#9aa4b8" stroke-width="3.5"/><path d="M26 30 q4 14 12 16 q-2 -16 -12 -16 Z" fill="#f2f4f8" stroke="#9aa4b8" stroke-width="3"/><path d="M74 30 q-4 14 -12 16 q2 -16 12 -16 Z" fill="#f2f4f8" stroke="#9aa4b8" stroke-width="3"/><g stroke="#3a4356" stroke-width="3" stroke-linecap="round"><path d="M40 36 v8"/><path d="M50 34 v10"/><path d="M60 36 v8"/><path d="M28 54 h8"/><path d="M64 54 h8"/></g><circle cx="42" cy="52" r="4" fill="#ffb300"/><circle cx="58" cy="52" r="4" fill="#ffb300"/><path d="M46 64 l4 4 4 -4" fill="#ff9a8b" stroke="#c86a5a" stroke-width="2"/><path d="M50 68 v6 M50 74 q-6 4 -10 0 M50 74 q6 4 10 0" stroke="#3a4356" stroke-width="2" fill="none"/></svg>
