<svg xmlns="http://www.w3.org/2000/svg" viewBox="0 0 100 100" width="100" height="100"><defs><radialGradient id="kf" cx="0.45" cy="0.4" r="0.7"><stop offset="0" stop-color="#ffe8d0"/><stop offset="1" stop-color="#f0c0a0"/></radialGradient></defs><circle cx="50" cy="52" r="26" fill="url(#kf)" stroke="#c88a5a" stroke-width="3.5"/><path d="M24 44 q0 -26 26 -26 q26 0 26 26 q-10 -8 -26 -8 q-16 0 -26 8 Z" fill="#8a93a8" stroke="#4a5266" stroke-width="3" stroke-linejoin="round"/><path d="M24 40 q-12 -6 -16 -22 q14 4 18 16 Z" fill="#e8e8ee" stroke="#9aa4b8" stroke-width="2.5"/><path d="M76 40 q12 -6 16 -22 q-14 4 -18 16 Z" fill="#e8e8ee" stroke="#9aa4b8" stroke-width="2.5"/><circle cx="42" cy="52" r="3.5" fill="#3a6ad8"/><path d="M55 49 l10 6 -10 6 Z" fill="#2a1810"/><path d="M30 66 q14 14 26 0" fill="none" stroke="#c8c8d0" stroke-width="3"/></svg>
