<svg xmlns="http://www.w3.org/2000/svg" viewBox="0 0 100 100" width="100" height="100"><defs><radialGradient id="g50" cx="0.5" cy="0.5" r="0.5"><stop offset="0" stop-color="#fff"/><stop offset="0.4" stop-color="#fff3a0"/><stop offset="1" stop-color="#ffb300"/></radialGradient></defs><circle cx="50" cy="50" r="48" fill="#fff7c2" opacity="0.45"/><g fill="#ffd23f" stroke="#e8920c" stroke-width="1.5"><path d="M50 2 l6 16 -12 0 Z"/><path d="M98 50 l-16 6 0 -12 Z"/><path d="M2 50 l16 6 0 -12 Z"/><path d="M50 98 l6 -16 -12 0 Z"/><path d="M16 16 l14 6 -8 8 Z"/><path d="M84 16 l-14 6 8 8 Z"/><path d="M16 84 l14 -6 -8 -8 Z"/><path d="M84 84 l-14 -6 8 -8 Z"/></g><circle cx="50" cy="52" r="26" fill="url(#g50)" stroke="#e8920c" stroke-width="3"/><path d="M30 30 L38 18 L50 28 L62 18 L70 30 Z" fill="#ffd23f" stroke="#c8920c" stroke-width="2.5" stroke-linejoin="round"/><path d="M50 40 l4 9 10 1 -7 7 2 10 -9 -5 -9 5 2 -10 -7 -7 10 -1 Z" fill="#fff" stroke="#e8920c" stroke-width="1.5"/></svg>
